<svg width="720" height="1560" viewBox="0 0 720 1560" fill="none" xmlns="http://www.w3.org/2000/svg">
  <rect width="720" height="1560" rx="44" fill="#08101F"/>
  <rect x="48" y="84" width="624" height="286" rx="38" fill="url(#hero)"/>
  <rect x="92" y="126" width="220" height="30" rx="15" fill="white" fill-opacity="0.96"/>
  <rect x="92" y="174" width="172" height="20" rx="10" fill="white" fill-opacity="0.62"/>
  <rect x="92" y="260" width="210" height="58" rx="29" fill="#08101F" fill-opacity="0.32"/>
  <circle cx="560" cy="206" r="82" fill="rgba(255,255,255,0.18)"/>
  <rect x="48" y="426" width="624" height="94" rx="30" fill="#101A31"/>
  <rect x="88" y="458" width="210" height="30" rx="15" fill="#41506D"/>
  <g>
    <rect x="48" y="576" width="624" height="336" rx="38" fill="#111C35"/>
    <rect x="80" y="620" width="176" height="232" rx="32" fill="url(#chef1)"/>
    <rect x="272" y="620" width="176" height="232" rx="32" fill="url(#chef2)"/>
    <rect x="464" y="620" width="176" height="232" rx="32" fill="url(#chef3)"/>
  </g>
  <rect x="48" y="968" width="624" height="230" rx="38" fill="#111C35"/>
  <rect x="84" y="1012" width="180" height="24" rx="12" fill="white" fill-opacity="0.9"/>
  <rect x="84" y="1060" width="548" height="18" rx="9" fill="#22314D"/>
  <rect x="84" y="1102" width="510" height="18" rx="9" fill="#22314D"/>
  <rect x="48" y="1250" width="624" height="188" rx="38" fill="url(#cta)"/>
  <rect x="90" y="1308" width="240" height="28" rx="14" fill="white" fill-opacity="0.94"/>
  <rect x="90" y="1354" width="210" height="18" rx="9" fill="white" fill-opacity="0.62"/>
  <defs>
    <linearGradient id="hero" x1="48" y1="84" x2="672" y2="370" gradientUnits="userSpaceOnUse">
      <stop stop-color="#8B5CF6"/>
      <stop offset="1" stop-color="#0EA5E9"/>
    </linearGradient>
    <linearGradient id="chef1" x1="80" y1="620" x2="256" y2="852" gradientUnits="userSpaceOnUse">
      <stop stop-color="#F59E0B"/>
      <stop offset="1" stop-color="#FB7185"/>
    </linearGradient>
    <linearGradient id="chef2" x1="272" y1="620" x2="448" y2="852" gradientUnits="userSpaceOnUse">
      <stop stop-color="#38BDF8"/>
      <stop offset="1" stop-color="#6366F1"/>
    </linearGradient>
    <linearGradient id="chef3" x1="464" y1="620" x2="640" y2="852" gradientUnits="userSpaceOnUse">
      <stop stop-color="#22C55E"/>
      <stop offset="1" stop-color="#14B8A6"/>
    </linearGradient>
    <linearGradient id="cta" x1="48" y1="1250" x2="672" y2="1438" gradientUnits="userSpaceOnUse">
      <stop stop-color="#111C35"/>
      <stop offset="1" stop-color="#172554"/>
    </linearGradient>
  </defs>
</svg>
