<svg width="720" height="1560" viewBox="0 0 720 1560" fill="none" xmlns="http://www.w3.org/2000/svg">
  <rect width="720" height="1560" rx="44" fill="#08101F"/>
  <rect x="52" y="88" width="616" height="122" rx="32" fill="#111C35"/>
  <rect x="92" y="128" width="220" height="28" rx="14" fill="white" fill-opacity="0.92"/>
  <rect x="92" y="168" width="132" height="16" rx="8" fill="#6A7A98"/>
  <rect x="52" y="264" width="616" height="306" rx="40" fill="url(#feature)"/>
  <circle cx="176" cy="418" r="86" fill="rgba(255,255,255,0.18)"/>
  <rect x="308" y="338" width="260" height="26" rx="13" fill="white" fill-opacity="0.96"/>
  <rect x="308" y="382" width="196" height="18" rx="9" fill="white" fill-opacity="0.66"/>
  <rect x="308" y="440" width="188" height="54" rx="27" fill="#0A1020" fill-opacity="0.35"/>
  <rect x="52" y="624" width="616" height="424" rx="38" fill="#111C35"/>
  <rect x="92" y="670" width="188" height="24" rx="12" fill="white" fill-opacity="0.9"/>
  <g>
    <rect x="92" y="736" width="536" height="94" rx="28" fill="#0D162C"/>
    <rect x="118" y="768" width="122" height="28" rx="14" fill="#0EA5E9"/>
    <rect x="462" y="768" width="136" height="28" rx="14" fill="#22C55E"/>
  </g>
  <g>
    <rect x="92" y="848" width="536" height="94" rx="28" fill="#0D162C"/>
    <rect x="118" y="880" width="142" height="28" rx="14" fill="#8B5CF6"/>
    <rect x="462" y="880" width="136" height="28" rx="14" fill="#F59E0B"/>
  </g>
  <rect x="52" y="1100" width="616" height="288" rx="40" fill="#111C35"/>
  <rect x="92" y="1142" width="210" height="26" rx="13" fill="white" fill-opacity="0.92"/>
  <rect x="92" y="1194" width="536" height="20" rx="10" fill="#22314D"/>
  <rect x="92" y="1238" width="436" height="20" rx="10" fill="#22314D"/>
  <rect x="92" y="1306" width="536" height="54" rx="27" fill="url(#cta)"/>
  <defs>
    <linearGradient id="feature" x1="52" y1="264" x2="668" y2="570" gradientUnits="userSpaceOnUse">
      <stop stop-color="#0EA5E9"/>
      <stop offset="1" stop-color="#8B5CF6"/>
    </linearGradient>
    <linearGradient id="cta" x1="92" y1="1306" x2="628" y2="1360" gradientUnits="userSpaceOnUse">
      <stop stop-color="#8B5CF6"/>
      <stop offset="1" stop-color="#0EA5E9"/>
    </linearGradient>
  </defs>
</svg>
