<svg width="720" height="1560" viewBox="0 0 720 1560" fill="none" xmlns="http://www.w3.org/2000/svg">
  <rect width="720" height="1560" rx="44" fill="#08101F"/>
  <rect x="52" y="86" width="616" height="118" rx="30" fill="#111C35"/>
  <rect x="88" y="126" width="170" height="24" rx="12" fill="white" fill-opacity="0.9"/>
  <rect x="88" y="162" width="116" height="16" rx="8" fill="#617493"/>
  <circle cx="606" cy="145" r="28" fill="#0EA5E9"/>
  <rect x="52" y="258" width="616" height="344" rx="40" fill="url(#mapCard)"/>
  <path d="M150 486C215 432 246 464 304 428C373 385 420 396 482 328C527 278 558 320 607 292" stroke="white" stroke-width="18" stroke-linecap="round" stroke-linejoin="round"/>
  <circle cx="150" cy="486" r="24" fill="#F97316"/>
  <circle cx="607" cy="292" r="24" fill="#22C55E"/>
  <rect x="52" y="656" width="616" height="312" rx="36" fill="#111C35"/>
  <rect x="92" y="700" width="188" height="24" rx="12" fill="white" fill-opacity="0.92"/>
  <g>
    <rect x="92" y="756" width="536" height="84" rx="28" fill="#0D162C"/>
    <rect x="118" y="784" width="120" height="28" rx="14" fill="#F59E0B"/>
    <rect x="478" y="784" width="120" height="28" rx="14" fill="#22C55E"/>
  </g>
  <g>
    <rect x="92" y="860" width="536" height="84" rx="28" fill="#0D162C"/>
    <rect x="118" y="888" width="144" height="28" rx="14" fill="#38BDF8"/>
    <rect x="478" y="888" width="120" height="28" rx="14" fill="#C4B5FD"/>
  </g>
  <rect x="52" y="1022" width="616" height="392" rx="38" fill="#111C35"/>
  <rect x="92" y="1064" width="220" height="26" rx="13" fill="white" fill-opacity="0.94"/>
  <rect x="92" y="1118" width="536" height="18" rx="9" fill="#22314D"/>
  <rect x="92" y="1160" width="410" height="18" rx="9" fill="#22314D"/>
  <rect x="92" y="1230" width="536" height="58" rx="29" fill="url(#button)"/>
  <rect x="92" y="1312" width="536" height="58" rx="29" fill="#0D162C"/>
  <defs>
    <linearGradient id="mapCard" x1="52" y1="258" x2="668" y2="602" gradientUnits="userSpaceOnUse">
      <stop stop-color="#0EA5E9"/>
      <stop offset="1" stop-color="#8B5CF6"/>
    </linearGradient>
    <linearGradient id="button" x1="92" y1="1230" x2="628" y2="1288" gradientUnits="userSpaceOnUse">
      <stop stop-color="#0EA5E9"/>
      <stop offset="1" stop-color="#22C55E"/>
    </linearGradient>
  </defs>
</svg>
